<svg width="166" height="164" viewBox="0 0 166 164" fill="none" xmlns="http://www.w3.org/2000/svg">
  <path d="M83 0.000145544V22.0001C65.9949 21.8572 50.5453 28.8994 39.583 40.2754L24 24.5876C38.9958 9.34252 59.9126 -0.0700306 83 0.000145544Z" fill="#6EC9EA"/>
  <path d="M142 25.0585C127.093 9.64709 106.176 0.0705907 83 0.000145544V22.0001C99.7099 22.1405 114.775 29.1204 125.5 40.2754L142 25.0585Z" fill="#E4BF77"/>
  <path d="M140.365 140.5C155.677 125.513 165.141 104.604 165 81.5001C164.866 59.527 156.134 39.6702 142 25.0585L125.5 40.2754C135.777 50.9646 142.068 65.4876 142 81.5001C141.929 98.248 134.953 113.294 123.763 124L140.365 140.5Z" fill="#FA967C"/>
  <path d="M83 140.5V164C105.321 163.932 125.572 154.979 140.365 140.5L123.763 124C113.183 134.124 98.8362 140.367 83 140.5Z" fill="#FAD285"/>
  <path d="M83 140.5V164C60.5309 164.068 40.0921 155.087 25.1787 140.5L41.3211 124C52.1441 134.337 66.8656 140.636 83 140.5Z" fill="#ED75A9"/>
  <path d="M24 24.5876C9.58023 39.2472 0.635342 59.2998 0.499959 81.5001C0.359126 104.594 9.85038 125.508 25.1787 140.5L41.3211 124C30.1008 113.284 23.0706 98.2271 23 81.5001C22.9325 65.5066 29.2732 50.9744 39.583 40.2754L24 24.5876Z" fill="#69E4B8"/>
  <path d="M83 22.0001V46.0001C72.7689 46.0001 63.5484 50.2309 57 57.0547L39.583 40.2754C50.5453 28.8994 65.9949 21.8572 83 22.0001Z" fill="#8BE275"/>
  <path d="M125.5 40.2754C114.775 29.1204 99.7099 22.1405 83 22.0001V46.0001C93.4942 46.0001 102.925 50.4513 109.5 57.5864L125.5 40.2754Z" fill="#7973C7"/>
  <path d="M123.763 124C134.953 113.294 141.929 98.248 142 81.5001C142.068 65.4876 135.777 50.9646 125.5 40.2754L109.5 57.5864C115.295 63.8758 118.871 72.2506 119 81.5001C119.144 91.8893 114.835 101.326 107.858 108L123.763 124Z" fill="#ED7FAF"/>
  <path d="M83 118C62.9792 118 46.7219 101.519 47 81.5001C47.1321 71.9874 50.9108 63.4 57 57.0547L39.583 40.2754C29.2732 50.9744 22.9325 65.5066 23 81.5001C23.0706 98.2271 30.1008 113.284 41.3211 124C52.1441 134.337 66.8656 140.636 83 140.5C98.8362 140.367 113.183 134.124 123.763 124L107.858 108C101.39 114.186 92.6306 118 83 118Z" fill="#8C84F4"/>
</svg>
